<?xml version="1.0" encoding="UTF-8"?>
<svg id="Layer_1" xmlns="http://www.w3.org/2000/svg" viewBox="0 0 2000 2000">
  <defs>
    <style>
      .cls-1 {
        letter-spacing: 0em;
      }

      .cls-2, .cls-3, .cls-4 {
        fill: #fff;
      }

      .cls-3 {
        font-size: 179.16px;
      }

      .cls-3, .cls-4 {
        font-family: Bahnschrift, Bahnschrift;
        font-variation-settings: 'wght' 400, 'wdth' 100;
      }

      .cls-5 {
        letter-spacing: -.01em;
      }

      .cls-4 {
        font-size: 111.53px;
      }
    </style>
  </defs>
  <g>
    <path class="cls-2" d="M447.83,883.39c-28.14-.12-52.67,9.32-74.1,27.04-5.68,4.68-11.76,11.91-19.11,3.88-7.68-8.38-1.31-15.11,5.31-20.89,72.34-63.08,192-35.16,221.56,62.31,24.2,79.87-29.75,157.94-114.74,168.86-38.24,4.91-71.53-5.86-101.7-28.09-4.2-3.1-9.23-6.68-10.88-11.12-.67-1.8-.66-3.85-.38-5.99.74-5.75,6.67-9.52,12.07-7.44.74.29,1.4.65,1.95,1.14,16.48,14.49,34.88,24.55,56.64,29.53,58.74,13.42,121.91-25.35,134.65-83.29,15.55-70.71-37.85-135.93-111.27-135.95"/>
    <path class="cls-2" d="M238.09,1108.86c-48.48.12-95.75-43.15-99.08-99.04-3.28-54.91,38.86-103.32,95.15-109.99,26.24-3.11,49.98,2.9,72.02,16.52,3.71,2.29,8.43,4.89,9.82,8.43.87,2.21,1.25,9.54-1.49,12.55-3.27,3.58-10,2.59-11.9,1.15-31.68-23.96-65.49-27.59-100.63-9.56-42.41,21.76-57.33,75.98-33.46,117.24,24.05,41.55,79.63,56.19,121.02,31.81,4.55-2.68,8.62-7.16,13.45-8.08,1.93-.36,3.98-.11,6.07.38,5.63,1.34,9,7.37,6.83,12.74-.39.96-.89,1.77-1.6,2.37-19.16,16.22-41.78,23.78-76.19,23.46"/>
  </g>
  <text class="cls-3" transform="translate(642.88 1008.81) scale(1.02 1)"><tspan x="0" y="0">Out Of The B</tspan><tspan class="cls-5" x="988.5" y="0">o</tspan><tspan class="cls-1" x="1083.62" y="0">x</tspan></text>
  <text class="cls-4" transform="translate(655.94 1119.12) scale(1.02 1)"><tspan x="0" y="0">QR CODE</tspan></text>
  <g>
    <g>
      <path class="cls-2" d="M297.64,1058.22c0-.13,0-.27,0-.4,0-13.39,0-26.79,0-40.18,0-.12,0-.25,0-.4h40.98c0,.1,0,.2,0,.29,0,13.46,0,26.91,0,40.37,0,.11-.02.21-.03.32h-40.94ZM331.35,1024.47h-26.46v26.46h26.46v-26.46Z"/>
      <path class="cls-2" d="M338.29,949.69c.01.11.03.21.03.32,0,13.45,0,26.9,0,40.34,0,.1,0,.19,0,.31h-40.97c0-.09-.01-.18-.01-.28,0-13.47,0-26.95,0-40.42,0-.09,0-.18,0-.27,13.65,0,27.29,0,40.94,0ZM331.06,956.95h-26.46v26.47h26.46v-26.47Z"/>
      <path class="cls-2" d="M386.51,949.69c0,.11,0,.21,0,.32,0,13.43,0,26.86,0,40.29v.36h-40.98c0-.11,0-.22,0-.33,0-13.46,0-26.91,0-40.37,0-.09,0-.18,0-.27,13.66,0,27.33,0,40.99,0ZM379.26,983.44v-26.49h-26.47v26.49h26.47Z"/>
      <path class="cls-2" d="M354.22,1057.92c-.12,0-.22.01-.31.01-2.5,0-5,0-7.5,0-.25,0-.31-.07-.31-.31,0-13.28,0-26.56,0-39.84,0-.09,0-.17.01-.27h16.17v8.06h16.14v-8.06h8.09v24.22h-16.15v-8.06h-16.13v8.05h.33c2.47,0,4.95,0,7.42,0,.24,0,.32.06.31.31,0,2.46,0,4.93,0,7.39v.37h8.04v8.08h-8.06v-8.03h-8.06v8.06Z"/>
      <path class="cls-2" d="M378.46,1049.83h8.06v8.07h-8.06v-8.07Z"/>
      <path class="cls-2" d="M313.83,1041.97v-8.53h8.55v8.53h-8.55Z"/>
      <path class="cls-2" d="M322.09,965.91v8.55h-8.55v-8.55h8.55Z"/>
      <path class="cls-2" d="M361.77,965.91h8.54v8.55h-8.54v-8.55Z"/>
    </g>
    <rect class="cls-2" x="257.88" y="997.88" width="194.71" height="7.99" rx=".96" ry=".96"/>
  </g>
</svg>